<svg width="53" height="70" viewBox="0 0 53 70" fill="none" xmlns="http://www.w3.org/2000/svg">
<path fill-rule="evenodd" clip-rule="evenodd" d="M51.9781 28.1912C53.0478 20.924 47.5694 16.9958 40.0488 14.3769L42.48 4.55635L36.4181 3.01779L34.0193 12.642L29.2865 11.4962L31.6529 1.83932L25.7207 0.333496L23.2895 10.1541L11.2954 7.20791L9.83664 13.624C9.83664 13.624 14.2453 14.6388 14.148 14.7043C15.8231 14.9565 17.0236 16.4683 16.9034 18.1742L10.4201 45.2136C10.2486 45.7695 9.86515 46.2337 9.35437 46.5039C8.84359 46.7741 8.24738 46.828 7.69715 46.6539L3.06159 45.5409L0.111694 52.4153L7.85923 54.3795L12.1058 55.4925L9.64214 65.313L15.5744 66.7861L18.0056 56.9655L22.8032 58.3404L20.372 68.161L26.3366 69.6668L28.8003 59.6826C38.9466 61.6467 46.5645 60.861 49.7737 51.597C52.3671 44.1333 49.7737 39.8123 44.3278 37.0298C48.5679 36.1769 51.7084 32.5487 51.9781 28.1912ZM38.3955 47.4396C36.5477 54.9032 24.0998 50.7131 20.0802 49.862L23.3218 36.7679C27.2442 37.6517 40.1784 39.6158 38.2658 47.4396H38.3955ZM40.2113 28.093C38.558 34.8692 28.1848 31.3665 24.8459 30.5809L27.6661 18.5998C31.0374 19.4509 41.8321 21.0222 40.0816 28.093H40.2113Z" fill="white"/>
</svg>
