<svg width="34" height="34" viewBox="0 0 34 34" fill="none" xmlns="http://www.w3.org/2000/svg">
<path fill-rule="evenodd" clip-rule="evenodd" d="M15.7595 0.24471L15.7653 0.244456C16.1846 0.22601 16.7334 0.201867 17.1489 0.200195C18.6207 0.206075 19.3893 0.782244 19.0886 1.91191C18.7181 3.29858 16.8255 5.18079 14.2836 6.8673C13.8031 7.09575 13.3075 6.44735 13.41 6.17187C13.4305 6.13174 13.4591 6.09629 13.494 6.06772C15.7142 4.59538 17.3665 2.95254 17.6941 1.74141C17.9809 0.644047 17.1183 0.149186 15.5431 0.262903L15.7595 0.24471ZM15.3799 0.276626L15.5431 0.262903C15.4895 0.266773 15.4351 0.271347 15.3799 0.276626ZM25.2561 4.07129C25.5409 3.00882 25.1855 2.27643 24.3321 1.88C24.0579 1.74882 23.7186 1.60586 23.3979 1.47072L23.3978 1.47069L23.3978 1.47067L23.3976 1.47062C23.3077 1.43274 23.2193 1.39548 23.1342 1.35926C23.0687 1.3307 23.0006 1.30215 22.9284 1.27527L23.1342 1.35926C23.9406 1.73217 24.2766 2.42173 24.0095 3.42373C23.2123 6.42048 17.3246 11.0685 10.8639 13.8065C9.73995 14.2898 8.58819 14.7057 7.41477 15.0521C7.31323 15.0884 7.22526 15.1549 7.16276 15.2428C6.90403 15.6123 7.00483 16.5077 7.62393 16.4186C8.87074 16.052 10.0946 15.6114 11.289 15.0991C18.1562 12.1914 24.4077 7.25534 25.2561 4.07129ZM31.7637 8.96032L31.9703 9.35507C32.0967 9.70092 32.1428 9.82734 32.1608 9.95764C32.1711 10.0327 32.1721 10.1091 32.1736 10.2294C32.1713 10.2513 32.1615 10.2718 32.1459 10.2874C31.9586 10.2244 31.505 9.36347 31.4621 8.98635C31.465 8.67017 31.3893 8.35822 31.242 8.07843L31.7637 8.96032ZM31.1757 7.96672L31.242 8.07843C31.221 8.03979 31.1992 8.00284 31.1757 7.96672ZM33.2716 12.7592C33.369 13.1329 33.3556 13.5688 33.2237 14.0669C32.3837 17.2039 27.0445 21.804 20.578 25.1981C19.8555 25.4996 19.4128 24.9545 19.5859 24.4892C19.6564 24.314 19.7872 24.1698 19.9547 24.0827C26.5295 20.6324 31.9603 15.9558 32.8071 12.7667C32.9486 12.2362 32.9563 11.7753 32.8418 11.3841L32.9007 11.563C33.0296 11.9542 33.1765 12.4002 33.2716 12.7592ZM32.8071 11.2776L32.8418 11.3841C32.8313 11.348 32.8197 11.3125 32.8071 11.2776ZM4.1941 6.59938C4.1781 6.65956 4.16604 6.72073 4.15798 6.78248C4.12332 6.98358 4.16919 7.19024 4.28567 7.35781C4.8048 8.06416 6.75282 7.90206 9.28046 6.83539C10.0757 6.49522 10.8479 6.10356 11.5922 5.66289C11.7527 5.52431 11.6384 5.31014 11.5847 5.23035C11.5309 5.15056 11.2654 4.84819 11.037 4.93218C10.4454 5.28086 9.83171 5.5906 9.19982 5.85943C7.19216 6.71193 5.64231 6.84127 5.22902 6.27938C5.11813 6.1282 5.08957 5.9283 5.15677 5.67633C5.25887 5.35865 5.42337 5.06454 5.64063 4.81124C6.01801 4.35928 6.44489 3.95106 6.91327 3.59423C8.09804 2.7398 9.37436 2.02005 10.7186 1.44829C10.8874 1.37622 11.0507 1.3152 11.2136 1.25435L11.2136 1.25434C11.2614 1.23648 11.3092 1.21863 11.357 1.20052C13.3521 0.547918 14.6583 0.748654 14.387 1.76577C14.3038 2.08073 14.0795 2.43433 13.7435 2.83664C13.8863 2.98362 14.6634 3.16336 15.0036 2.99538C15.4177 2.52084 15.6974 2.07233 15.8024 1.68094C16.1132 0.512642 14.7751 0.200201 12.6322 0.774691C12.4654 0.819584 12.3699 0.848288 12.2534 0.88328L12.2534 0.883282L12.2534 0.883296L12.2531 0.883362C12.2019 0.898755 12.1466 0.915367 12.0794 0.935111C11.8593 0.999783 11.7854 1.02414 11.5427 1.10897C11.2999 1.1938 11.1697 1.24167 11.0017 1.30635C10.8327 1.36929 10.7152 1.41788 10.4884 1.51162L10.4506 1.52724C10.2956 1.59348 10.2192 1.62779 10.0979 1.68226L10.0222 1.71622C9.85168 1.79265 9.78112 1.82708 9.61311 1.90939C9.4968 1.96638 9.43162 2.00001 9.35012 2.04207C9.3139 2.06077 9.27445 2.08112 9.22586 2.10593C9.06794 2.18656 9.00745 2.21931 8.84785 2.30834C8.74192 2.36743 8.68076 2.40321 8.6074 2.44614L8.60736 2.44616L8.60728 2.44621L8.60702 2.44636C8.56995 2.46804 8.52975 2.49156 8.47908 2.52084C8.32787 2.60819 8.27327 2.64094 8.11283 2.74173C8.00158 2.81161 7.94162 2.85081 7.86351 2.90187L7.8635 2.90187C7.82896 2.92445 7.79087 2.94936 7.74321 2.98026C7.59576 3.07589 7.53679 3.11708 7.39551 3.21576L7.37192 3.23223C7.2365 3.32714 7.16875 3.37695 7.06877 3.45045L6.98047 3.51528C6.85956 3.60385 6.79439 3.6546 6.69417 3.73264L6.69413 3.73267L6.69412 3.73268L6.69411 3.73269L6.59238 3.81176C6.44095 3.93288 6.36609 3.99524 6.25548 4.08738L6.1648 4.16284C5.99596 4.3031 5.92036 4.36693 5.73891 4.53491C5.40145 4.83449 5.08878 5.16088 4.80396 5.51087C4.60091 5.75708 4.42987 6.028 4.29491 6.31717C4.25395 6.40845 4.22025 6.50281 4.1941 6.59938ZM2.29311 9.27108C2.30421 9.18177 2.32161 9.09336 2.34519 9.00651C2.38317 8.86722 2.43175 8.73104 2.49052 8.59916C2.57956 8.41607 2.71312 8.17921 2.81561 8.00368C2.89292 7.87126 2.99365 7.7288 3.09689 7.5828L3.0969 7.58279L3.0969 7.58278C3.13052 7.53524 3.1644 7.48733 3.19782 7.43926L3.23634 7.38385C3.36058 7.20508 3.48839 7.02117 3.60103 6.86897L3.83204 6.56913L3.83624 6.56409C3.71122 6.72615 3.59942 6.89261 3.48721 7.05966L3.48721 7.05966L3.48721 7.05967L3.48721 7.05967L3.4872 7.05968L3.4872 7.05968L3.4872 7.05968L3.48719 7.05969L3.48719 7.05969L3.48719 7.0597L3.48719 7.0597L3.48718 7.05971L3.43471 7.13774C3.27601 7.38503 3.15273 7.65333 3.06846 7.9348C2.96261 8.33208 3.00797 8.6504 3.18438 8.88977C3.72704 9.62972 5.51461 9.61376 7.92801 8.81334C8.2783 8.76294 8.2447 9.40714 8.24386 9.41386C8.21362 9.76494 8.16742 10.2949 5.09796 10.6737C4.21761 10.7812 3.05081 10.7728 2.49388 10.1211L2.48044 10.1026C2.40454 9.9955 2.3498 9.87492 2.31915 9.7473C2.31915 9.7426 2.31731 9.73816 2.31539 9.73355C2.31388 9.72991 2.31233 9.72617 2.31159 9.72211C2.28856 9.57293 2.28236 9.42164 2.29311 9.27108ZM1.07002 11.7068C1.04064 11.8172 1.01847 11.9294 1.00365 12.0427C0.951572 12.4627 1.03473 12.8121 1.23802 13.0893C2.18557 14.3802 5.74476 14.0837 10.3649 12.1267C16.2157 9.64736 21.549 5.43527 22.2731 2.71988C22.5344 1.74056 22.1606 1.09216 21.2483 0.756203L21.22 0.748383C21.0614 0.704481 20.8924 0.657705 20.6015 0.597463C20.2087 0.514736 20.19 0.515978 20.0409 0.525918L20.0387 0.526071C20.8241 0.814996 21.1651 1.40964 20.9266 2.30497C20.2646 4.78687 15.3891 8.6378 10.0373 10.9055C5.81952 12.6928 2.56442 12.9666 1.69752 11.7841C1.46483 11.4666 1.40435 11.0441 1.54463 10.5175C1.57766 10.395 1.61835 10.2746 1.66643 10.1572C1.69584 10.0875 1.72608 10.0186 1.75464 9.95476C1.72188 10.0228 1.69332 10.0908 1.66643 10.1572C1.51684 10.5033 1.3594 10.9087 1.22433 11.2564L1.2243 11.2565L1.22427 11.2565L1.22426 11.2566L1.15402 11.4372C1.12154 11.5279 1.09354 11.6178 1.07002 11.7068ZM0.323967 14.9992L0.459211 14.0913L0.577655 13.4874C0.587735 13.4412 0.599496 13.3942 0.612096 13.3463C0.592061 13.4387 0.577995 13.5324 0.563943 13.6261C0.555017 13.6855 0.546096 13.745 0.535654 13.804C0.499533 14.2298 0.586895 14.5893 0.796902 14.8749C0.95866 15.0892 1.16916 15.262 1.41096 15.3788C1.62265 15.5678 1.51092 16.2968 1.50924 16.3027C1.47144 16.5253 1.39584 16.7865 1.25052 16.7638C0.991538 16.6337 0.768761 16.4415 0.602016 16.2044V16.2322C0.582532 16.2056 0.566883 16.1767 0.551251 16.1478C0.542621 16.1318 0.533996 16.1158 0.524733 16.1003C0.520253 16.0927 0.515691 16.0852 0.511149 16.0777L0.511097 16.0777C0.501179 16.0614 0.491364 16.0453 0.482732 16.0281C0.476216 16.015 0.470149 16.0058 0.464531 15.9973C0.459286 15.9893 0.454433 15.982 0.449971 15.9726C0.399226 15.8561 0.363382 15.7336 0.343288 15.6081C0.339603 15.5897 0.337568 15.5706 0.335528 15.5515C0.334312 15.5401 0.333096 15.5287 0.331527 15.5174C0.322121 15.4643 0.315393 15.4108 0.311367 15.357C0.305364 15.2362 0.309579 15.1151 0.323967 14.995V14.9992ZM0.368497 18.9924C0.374335 19.0132 0.380143 19.0339 0.387825 19.0534V19.0492L0.39487 19.0673L0.39488 19.0674C0.398917 19.0779 0.402861 19.0883 0.407145 19.0979C0.454232 19.2116 0.51427 19.3196 0.586071 19.4196C0.585652 19.4126 0.585652 19.4056 0.586071 19.3986C1.80159 21.0952 6.43349 20.7206 12.4531 18.174C20.0688 14.9429 27.0057 9.46427 27.9449 5.93502C28.2028 4.96998 27.9852 4.25019 27.3796 3.77984L26.7075 3.2759L26.1329 2.88787C26.4312 3.10708 26.9839 3.51443 26.9352 4.4778C26.6613 9.99844 5.28014 23.1529 0.512989 18.0497C0.321809 17.7837 0.213797 17.4678 0.201246 17.142C0.200758 17.1064 0.200499 17.0716 0.200499 17.0376C0.199656 17.0725 0.19991 17.1073 0.201246 17.142C0.205581 17.4573 0.228014 17.829 0.248665 18.1713L0.248668 18.1713L0.24867 18.1713L0.248671 18.1714C0.25446 18.2673 0.26011 18.3609 0.265181 18.4503V18.4671C0.271061 18.4999 0.271061 18.536 0.271061 18.5679C0.275261 18.5755 0.275261 18.5814 0.275261 18.5889C0.27692 18.6018 0.280013 18.615 0.283225 18.6288C0.286518 18.6429 0.289936 18.6576 0.292062 18.6729C0.305886 18.7678 0.32752 18.8613 0.356744 18.9526C0.361007 18.9657 0.364758 18.9791 0.368497 18.9924ZM1.2548 22.6028L1.24136 22.5851L1.23632 22.5784L1.23044 22.5709L1.22036 22.5566C1.10401 22.4183 1.0225 22.2541 0.982636 22.0778C0.950512 21.9601 0.914921 21.8326 0.87805 21.7006L0.877947 21.7003L0.877926 21.7002L0.877919 21.7002C0.779379 21.3474 0.671724 20.9619 0.596725 20.6409C0.649764 20.8537 0.743364 21.0544 0.872593 21.2321L0.891913 21.2581C2.20403 22.974 7.00479 22.565 13.2092 19.9378C21.1256 16.5782 28.3364 10.8845 29.3159 7.21334C29.5385 6.37345 29.4184 5.71833 29.0076 5.23874L29.1604 5.40309L29.1639 5.40687L29.1664 5.40956L29.1673 5.41055C29.4306 5.69326 29.7213 6.00548 29.9417 6.26762C30.3533 6.75644 30.4718 7.425 30.2458 8.27161C29.247 12.0167 21.8917 17.8263 13.8166 21.2472C7.47856 23.9349 2.58373 24.3481 1.25228 22.591L1.2548 22.6028ZM28.9018 5.12536L29.0076 5.23874C28.974 5.20011 28.9396 5.16147 28.9018 5.12536ZM0.582784 20.5803C0.587066 20.6006 0.591715 20.6208 0.596725 20.6409L0.582784 20.5803ZM2.29142 25.0922C2.50142 25.5458 2.57115 25.5962 2.57115 25.5962V25.592C2.66962 25.7052 2.77571 25.8115 2.88868 25.9103C4.56873 27.3289 9.31404 26.8065 15.3673 24.2523C20.226 22.1938 24.8285 19.2844 27.9861 16.4631L27.9863 16.4629C28.114 16.284 28.307 16.0136 28.1432 15.5695C28.0676 15.3646 27.8316 14.9186 27.2822 15.2083C24.1262 18.0245 19.5321 20.9289 14.6818 22.9841C8.22284 25.7188 3.23981 26.1337 1.91341 24.3279C2.02429 24.5687 2.14217 24.8081 2.26706 25.046L2.29142 25.0922ZM4.13016 27.7975C3.95459 27.5909 3.78155 27.3818 3.63958 27.1979C3.63034 27.1869 3.62194 27.1752 3.61354 27.1634C3.62026 27.1722 3.6274 27.1804 3.63454 27.1886C3.64168 27.1968 3.64882 27.205 3.65554 27.2138C4.44349 28.2074 6.39319 28.4913 9.11572 28.0428C9.66509 28.0134 10.0263 28.472 10.0927 28.5963C10.1691 28.7407 10.2489 28.9969 9.91542 29.0943C7.34578 29.5143 5.47168 29.2783 4.64174 28.3922C4.48465 28.2141 4.30405 28.0008 4.13016 27.7933V27.7975ZM6.21485 29.8911C6.17802 29.8641 6.14251 29.8362 6.10835 29.8074V29.8032C6.14258 29.8319 6.17817 29.8613 6.21485 29.8911ZM6.21485 29.8911C7.7916 31.0491 11.7929 30.6412 16.9052 28.6173C17.6757 28.3806 17.933 28.8953 17.9359 28.9012L17.9359 28.9012C17.9788 29.0045 18.0334 29.2682 17.5999 29.4832C12.695 31.4251 8.84851 31.8232 7.30538 30.7338C7.20116 30.6533 7.08656 30.5662 6.9679 30.476L6.96769 30.4758L6.96764 30.4758L6.96746 30.4756C6.71463 30.2834 6.44342 30.0772 6.21485 29.8911ZM28.8514 28.5543C28.7437 28.7282 28.6103 28.8848 28.4557 29.0188C26.8538 30.3072 24.7411 31.5821 22.5277 32.5203C20.662 33.3106 19.0306 33.7323 17.8235 33.7936C17.3909 33.802 16.8407 33.8028 16.3678 33.7936C17.7597 33.7936 19.7421 33.3157 22.0388 32.3431C24.5471 31.2798 26.9412 29.8351 28.759 28.3754C28.8027 28.3459 28.8494 28.3211 28.8984 28.3015L28.9346 28.3678C28.9117 28.4307 28.8839 28.4916 28.8514 28.5501V28.5543ZM16.0771 33.7869C16.1704 33.7936 16.2678 33.7936 16.3678 33.7936L16.0771 33.7869ZM13.9474 33.5265C18.5281 34.2622 30.0339 28.5291 32.5414 23.4057C32.6918 23.0657 32.8378 22.6249 32.9681 22.2315L32.9684 22.2306L32.971 22.2227C32.9912 22.1618 33.011 22.1021 33.0303 22.0441C33.0495 21.9913 33.0671 21.939 33.0832 21.8872C33.066 21.9377 33.0483 21.9901 33.0303 22.0441C32.0079 24.8601 26.6453 29.025 20.7777 31.5116C17.1538 33.0468 14.1572 33.5952 12.491 33.1879C12.4488 33.177 12.4074 33.1661 12.3673 33.1553C12.4077 33.1668 12.449 33.1777 12.491 33.1879C12.932 33.3023 13.4806 33.4234 13.9103 33.5183L13.9105 33.5183L13.9474 33.5265ZM33.6905 18.9464L33.6905 18.9465C33.6526 19.2577 33.6119 19.5921 33.5656 19.8605C33.5513 19.9445 33.5329 20.0235 33.5102 20.1083C32.6878 23.1907 26.6337 27.9723 19.9857 30.7884C15.6638 32.6202 12.1542 33.1695 10.4565 32.48C10.388 32.4482 10.3158 32.4149 10.2411 32.3804L10.2404 32.3801L10.2402 32.38C9.85752 32.2034 9.41099 31.9972 9.0696 31.8181C14.9019 34.2471 32.9011 24.4119 33.7605 18.326L33.7403 18.5469C33.7241 18.6698 33.7076 18.8057 33.6905 18.9464ZM27.6197 23.9349C30.8614 21.542 33.1841 19.0332 33.6965 17.1115H33.6973C33.772 16.8452 33.8063 16.5691 33.799 16.2926L33.7679 15.7517L33.6689 14.7952C33.7024 15.1353 33.6708 15.4788 33.5755 15.8072C33.0455 17.796 30.643 20.3947 27.2829 22.8724C27.1111 23.0111 26.9912 23.2038 26.9427 23.4192C26.8637 23.7929 27.0947 24.2565 27.6197 23.9349Z" fill="white"/>
</svg>
