<svg width="1920" height="400" viewBox="0 0 1920 400" fill="none" xmlns="http://www.w3.org/2000/svg">
<g opacity="0.15" clip-path="url(#clip0_99_428)">
<path fill-rule="evenodd" clip-rule="evenodd" d="M7.30658 241.393L118.085 271.347L230.71 177.961L347.906 145.364L455.959 33.478L566.737 5.28613L679.362 86.3377L790.14 130.387L904.611 96.9096L1015.39 86.3377L1128.01 121.577L1241.76 85.4567L1351.42 146.245L1464.04 163.865L1576.67 96.9096H1687.44L1800.07 86.3377L1912.69 17.6201L1913.55 400L7.30658 304.824" fill="url(#paint0_linear_99_428)" fill-opacity="0.1"/>
<path fill-rule="evenodd" clip-rule="evenodd" d="M566.952 4.2085L679.846 85.4539L790.187 129.33L902.574 95.923L1015.49 85.3238L1128.01 118.771L1241.87 84.3771L1351.75 145.285L1463.84 162.821L1576.39 95.9095H1689.24L1799.75 85.364L1912.17 16.7663L1913.21 18.4736L1800.39 87.3112L1689.34 97.9095H1576.94L1464.24 164.909L1351.09 147.206L1241.64 86.536L1128.02 120.859L1015.29 87.3513L902.956 97.896L790.093 131.445L678.878 87.2212L566.522 6.36359L454.636 32.6202L348.445 146.252L231.192 178.865L122.045 272.434L7.0816 245.891L7.53154 243.942L121.51 270.258L230.227 177.057L347.367 144.476L453.589 30.8116L566.952 4.2085Z" fill="#990505"/>
<path d="M15 245C15 248.25 12.156 251 8.5 251C4.84405 251 2 248.25 2 245C2 241.75 4.84405 239 8.5 239C12.156 239 15 241.75 15 245Z" fill="white" stroke="#990505" stroke-width="2"/>
<path d="M127 271C127 274.314 124.314 277 121 277C117.686 277 115 274.314 115 271C115 267.686 117.686 265 121 265C124.314 265 127 267.686 127 271Z" fill="white" stroke="#990505" stroke-width="2"/>
<path d="M235 179.5C235 183.09 232.09 186 228.5 186C224.91 186 222 183.09 222 179.5C222 175.91 224.91 173 228.5 173C232.09 173 235 175.91 235 179.5Z" fill="white" stroke="#990505" stroke-width="2"/>
<path d="M460 34C460 37.866 456.866 41 453 41C449.134 41 446 37.866 446 34C446 30.134 449.134 27 453 27C456.866 27 460 30.134 460 34Z" fill="white" stroke="#990505" stroke-width="2"/>
<path d="M351 145.5C351 149.09 348.09 152 344.5 152C340.91 152 338 149.09 338 145.5C338 141.91 340.91 139 344.5 139C348.09 139 351 141.91 351 145.5Z" fill="white" stroke="#990505" stroke-width="2"/>
<path d="M571.945 7.04796C571.945 10.3375 569.112 13.0959 565.502 13.0959C561.891 13.0959 559.059 10.3375 559.059 7.04796C559.059 3.75844 561.891 1 565.502 1C569.112 1 571.945 3.75844 571.945 7.04796Z" fill="white" stroke="#990505" stroke-width="2"/>
<path d="M684.764 86.3375C684.764 89.627 681.932 92.3855 678.321 92.3855C674.711 92.3855 671.878 89.627 671.878 86.3375C671.878 83.048 674.711 80.2896 678.321 80.2896C681.932 80.2896 684.764 83.048 684.764 86.3375Z" fill="white" stroke="#990505" stroke-width="2"/>
<path d="M797.644 128.625C797.644 131.915 794.811 134.673 791.201 134.673C787.591 134.673 784.758 131.915 784.758 128.625C784.758 125.336 787.591 122.577 791.201 122.577C794.811 122.577 797.644 125.336 797.644 128.625Z" fill="white" stroke="#990505" stroke-width="2"/>
<path d="M910.577 97.3613C910.577 100.951 907.667 103.861 904.077 103.861C900.488 103.861 897.577 100.951 897.577 97.3613C897.577 93.7715 900.488 90.8613 904.077 90.8613C907.667 90.8613 910.577 93.7715 910.577 97.3613Z" fill="white" stroke="#990505" stroke-width="2"/>
<path d="M1024.38 87.2896C1024.38 91.1555 1021.24 94.2896 1017.38 94.2896C1013.51 94.2896 1010.38 91.1555 1010.38 87.2896C1010.38 83.4236 1013.51 80.2896 1017.38 80.2896C1021.24 80.2896 1024.38 83.4236 1024.38 87.2896Z" fill="white" stroke="#990505" stroke-width="2"/>
<path d="M1135 118C1135 121.314 1132.31 124 1129 124C1125.69 124 1123 121.314 1123 118C1123 114.686 1125.69 112 1129 112C1132.31 112 1135 114.686 1135 118Z" fill="white" stroke="#990505" stroke-width="2"/>
<path d="M1248 86C1248 89.3137 1245.31 92 1242 92C1238.69 92 1236 89.3137 1236 86C1236 82.6863 1238.69 80 1242 80C1245.31 80 1248 82.6863 1248 86Z" fill="white" stroke="#990505" stroke-width="2"/>
<path d="M1362 147C1362 150.314 1359.31 153 1356 153C1352.69 153 1350 150.314 1350 147C1350 143.686 1352.69 141 1356 141C1359.31 141 1362 143.686 1362 147Z" fill="white" stroke="#990505" stroke-width="2"/>
<path d="M1469 162.5C1469 165.538 1466.54 168 1463.5 168C1460.46 168 1458 165.538 1458 162.5C1458 159.462 1460.46 157 1463.5 157C1466.54 157 1469 159.462 1469 162.5Z" fill="white" stroke="#990505" stroke-width="2"/>
<path d="M1585 97C1585 100.314 1582.31 103 1579 103C1575.69 103 1573 100.314 1573 97C1573 93.6863 1575.69 91 1579 91C1582.31 91 1585 93.6863 1585 97Z" fill="white" stroke="#990505" stroke-width="2"/>
<path d="M1701 95C1701 98.3137 1698.31 101 1695 101C1691.69 101 1689 98.3137 1689 95C1689 91.6863 1691.69 89 1695 89C1698.31 89 1701 91.6863 1701 95Z" fill="white" stroke="#990505" stroke-width="2"/>
<path d="M1811 84C1811 87.866 1807.87 91 1804 91C1800.13 91 1797 87.866 1797 84C1797 80.134 1800.13 77 1804 77C1807.87 77 1811 80.134 1811 84Z" fill="white" stroke="#990505" stroke-width="2"/>
<path d="M1922 15.5C1922 18.5376 1919.54 21 1916.5 21C1913.46 21 1911 18.5376 1911 15.5C1911 12.4624 1913.46 10 1916.5 10C1919.54 10 1922 12.4624 1922 15.5Z" fill="white" stroke="#990505" stroke-width="2"/>
</g>
<defs>
<linearGradient id="paint0_linear_99_428" x1="134.85" y1="5.28613" x2="134.85" y2="347.181" gradientUnits="userSpaceOnUse">
<stop stop-color="#F31818"/>
<stop offset="1" stop-color="#5D7EF7" stop-opacity="0.01"/>
</linearGradient>
<clipPath id="clip0_99_428">
<rect width="1920" height="400" fill="white"/>
</clipPath>
</defs>
</svg>
