<svg width="1917" height="407" viewBox="0 0 1917 407" fill="none" xmlns="http://www.w3.org/2000/svg">
<g opacity="0.15" clip-path="url(#clip0_99_450)">
<path fill-rule="evenodd" clip-rule="evenodd" d="M4.95862 275.07L115.21 216.747L229.198 251.741L342.252 147.656L452.503 18.4471L566.491 47.1601L675.808 135.991L789.796 191.623L901.916 132.402L1010.3 109.97L1125.22 4.98779L1237.34 86.6406L1351.33 216.747L1461.58 258.022L1576.5 140.029L1685.49 22.9335L1796.07 47.1601L1910.06 59.7221V407H4.95862" fill="url(#paint0_linear_99_450)" fill-opacity="0.1"/>
<path fill-rule="evenodd" clip-rule="evenodd" d="M1127.13 4.09033L1239.79 86.2315L1353.47 216.138L1462.66 257.065L1576.9 139.643L1576.91 139.626L1686.07 22.2136L1796.94 46.5338L1910.66 59.0809L1910.44 61.0688L1796.62 48.5101L1686.75 24.4119L1578.36 141.005L1578.35 141.013L1578.35 141.021L1463.19 259.397L1352.3 217.834L1238.43 87.7161L1127.28 6.66981L1012.97 111.21L904.667 133.653L792.437 193.002L678.105 137.137L569.079 48.4374L456.125 19.9512L346.447 148.64L233.142 253.079L119.211 218.062L8.39214 275.215L7.4754 273.437L119.019 215.91L232.631 250.83L345.003 147.251L455.409 17.708L569.998 46.6064L679.189 135.441L792.401 190.758L903.983 131.752L1012.03 109.363L1127.13 4.09033Z" fill="#75ACFE"/>
<path d="M11 273.5C11 277.09 8.08985 280 4.5 280C0.910149 280 -2 277.09 -2 273.5C-2 269.91 0.910149 267 4.5 267C8.08985 267 11 269.91 11 273.5Z" fill="white" stroke="#2B69DD" stroke-width="2"/>
<path d="M124 216.5C124 220.09 121.09 223 117.5 223C113.91 223 111 220.09 111 216.5C111 212.91 113.91 210 117.5 210C121.09 210 124 212.91 124 216.5Z" fill="white" stroke="#2B69DD" stroke-width="2"/>
<path d="M238 250.5C238 254.09 235.09 257 231.5 257C227.91 257 225 254.09 225 250.5C225 246.91 227.91 244 231.5 244C235.09 244 238 246.91 238 250.5Z" fill="white" stroke="#2B69DD" stroke-width="2"/>
<path d="M462 19.5C462 23.0899 459.09 26 455.5 26C451.91 26 449 23.0899 449 19.5C449 15.9101 451.91 13 455.5 13C459.09 13 462 15.9101 462 19.5Z" fill="white" stroke="#2B69DD" stroke-width="2"/>
<path d="M348 151.5C348 155.09 345.09 158 341.5 158C337.91 158 335 155.09 335 151.5C335 147.91 337.91 145 341.5 145C345.09 145 348 147.91 348 151.5Z" fill="white" stroke="#2B69DD" stroke-width="2"/>
<path d="M571.908 46.9521C571.908 50.542 568.998 53.4521 565.408 53.4521C561.818 53.4521 558.908 50.542 558.908 46.9521C558.908 43.3623 561.818 40.4521 565.408 40.4521C568.998 40.4521 571.908 43.3623 571.908 46.9521Z" fill="white" stroke="#2B69DD" stroke-width="2"/>
<path d="M684 133.5C684 137.09 681.09 140 677.5 140C673.91 140 671 137.09 671 133.5C671 129.91 673.91 127 677.5 127C681.09 127 684 129.91 684 133.5Z" fill="white" stroke="#2B69DD" stroke-width="2"/>
<path d="M798 189.5C798 193.09 795.09 196 791.5 196C787.91 196 785 193.09 785 189.5C785 185.91 787.91 183 791.5 183C795.09 183 798 185.91 798 189.5Z" fill="white" stroke="#2B69DD" stroke-width="2"/>
<path d="M910.43 133.029C910.43 136.619 907.52 139.529 903.93 139.529C900.34 139.529 897.43 136.619 897.43 133.029C897.43 129.439 900.34 126.529 903.93 126.529C907.52 126.529 910.43 129.439 910.43 133.029Z" fill="white" stroke="#2B69DD" stroke-width="2"/>
<path d="M1018 109.5C1018 113.09 1015.09 116 1011.5 116C1007.91 116 1005 113.09 1005 109.5C1005 105.91 1007.91 103 1011.5 103C1015.09 103 1018 105.91 1018 109.5Z" fill="white" stroke="#2B69DD" stroke-width="2"/>
<path d="M1134 7.5C1134 11.0899 1131.09 14 1127.5 14C1123.91 14 1121 11.0899 1121 7.5C1121 3.91015 1123.91 1 1127.5 1C1131.09 1 1134 3.91015 1134 7.5Z" fill="white" stroke="#2B69DD" stroke-width="2"/>
<path d="M1248.95 88.1973C1248.95 91.7871 1246.04 94.6973 1242.45 94.6973C1238.86 94.6973 1235.95 91.7871 1235.95 88.1973C1235.95 84.6074 1238.86 81.6973 1242.45 81.6973C1246.04 81.6973 1248.95 84.6074 1248.95 88.1973Z" fill="white" stroke="#2B69DD" stroke-width="2"/>
<path d="M1359.91 215.52C1359.91 219.109 1357 222.02 1353.41 222.02C1349.82 222.02 1346.91 219.109 1346.91 215.52C1346.91 211.93 1349.82 209.02 1353.41 209.02C1357 209.02 1359.91 211.93 1359.91 215.52Z" fill="white" stroke="#2B69DD" stroke-width="2"/>
<path d="M1469 256.5C1469 260.09 1466.09 263 1462.5 263C1458.91 263 1456 260.09 1456 256.5C1456 252.91 1458.91 250 1462.5 250C1466.09 250 1469 252.91 1469 256.5Z" fill="white" stroke="#2B69DD" stroke-width="2"/>
<path d="M1586 137.5C1586 141.09 1583.09 144 1579.5 144C1575.91 144 1573 141.09 1573 137.5C1573 133.91 1575.91 131 1579.5 131C1583.09 131 1586 133.91 1586 137.5Z" fill="white" stroke="#2B69DD" stroke-width="2"/>
<path d="M1693 21.5C1693 25.0899 1690.09 28 1686.5 28C1682.91 28 1680 25.0899 1680 21.5C1680 17.9101 1682.91 15 1686.5 15C1690.09 15 1693 17.9101 1693 21.5Z" fill="white" stroke="#2B69DD" stroke-width="2"/>
<path d="M1809.39 46.9521C1809.39 50.542 1806.48 53.4521 1802.89 53.4521C1799.3 53.4521 1796.39 50.542 1796.39 46.9521C1796.39 43.3623 1799.3 40.4521 1802.89 40.4521C1806.48 40.4521 1809.39 43.3623 1809.39 46.9521Z" fill="white" stroke="#2B69DD" stroke-width="2"/>
<path d="M1924.11 61.2983C1924.11 64.8882 1921.2 67.7983 1917.61 67.7983C1914.02 67.7983 1911.11 64.8882 1911.11 61.2983C1911.11 57.7085 1914.02 54.7983 1917.61 54.7983C1921.2 54.7983 1924.11 57.7085 1924.11 61.2983Z" fill="white" stroke="#2B69DD" stroke-width="2"/>
</g>
<defs>
<linearGradient id="paint0_linear_99_450" x1="4.95862" y1="4.98779" x2="4.95862" y2="407" gradientUnits="userSpaceOnUse">
<stop stop-color="#3A96FD"/>
<stop offset="1" stop-color="#2E5BFF" stop-opacity="0.01"/>
</linearGradient>
<clipPath id="clip0_99_450">
<rect width="1917" height="407" fill="white"/>
</clipPath>
</defs>
</svg>
