<svg width="33" height="59" viewBox="0 0 33 59" fill="none" xmlns="http://www.w3.org/2000/svg">
<path d="M11.7196 42.0025C11.7722 38.9042 12.1273 36.4567 12.7849 34.6602C13.4426 32.8637 14.7841 30.8719 16.8096 28.6849L21.9785 23.4125C24.1882 20.9391 25.293 18.2834 25.293 15.4454C25.293 12.7116 24.5696 10.5766 23.1228 9.04047C21.676 7.47828 19.5716 6.69719 16.8096 6.69719C14.1265 6.69719 11.9695 7.40018 10.3386 8.80614C8.70767 10.2121 7.89222 12.0997 7.89222 14.469H0.59259C0.6452 10.2512 2.15774 6.85341 5.1302 4.27581C8.12897 1.67218 12.0221 0.370361 16.8096 0.370361C21.7812 0.370361 25.6481 1.69822 28.4101 4.35392C31.1984 6.98359 32.5926 10.6026 32.5926 15.2111C32.5926 19.7674 30.4619 24.2587 26.2005 28.6849L21.8996 32.9028C19.9794 35.0117 19.0192 38.045 19.0192 42.0025H11.7196ZM11.4039 54.3828C11.4039 53.2111 11.7591 52.2348 12.4693 51.4537C13.2058 50.6465 14.2843 50.243 15.7048 50.243C17.1253 50.243 18.2038 50.6465 18.9403 51.4537C19.6768 52.2348 20.0451 53.2111 20.0451 54.3828C20.0451 55.5544 19.6768 56.5308 18.9403 57.3119C18.2038 58.0669 17.1253 58.4444 15.7048 58.4444C14.2843 58.4444 13.2058 58.0669 12.4693 57.3119C11.7591 56.5308 11.4039 55.5544 11.4039 54.3828Z" fill="#E7E9E8"/>
</svg>
