<svg width="40" height="40" viewBox="0 0 40 40" fill="none" xmlns="http://www.w3.org/2000/svg">
<path fill-rule="evenodd" clip-rule="evenodd" d="M35.4242 16.3625C37.4768 24.9122 32.2099 33.5069 23.6602 35.5596C15.1104 37.6122 6.51573 32.3453 4.46313 23.7956C2.41052 15.2458 7.67736 6.65113 16.2271 4.59852C24.7768 2.54591 33.3715 7.81276 35.4242 16.3625Z" fill="#FFC246"/>
<path fill-rule="evenodd" clip-rule="evenodd" d="M26.361 16.1049C26.159 13.8537 24.2378 13.0719 21.7996 12.8286L21.8216 9.71575L19.8974 9.69085L19.871 12.7426L18.3727 12.7398L18.387 9.68055L16.504 9.65613L16.482 12.769L12.6819 12.749L12.7063 14.7735C12.7063 14.7735 14.0982 14.7604 14.0738 14.787C14.5931 14.7421 15.0609 15.1082 15.1475 15.6272L15.1499 24.1829C15.1385 24.3615 15.0572 24.5279 14.9238 24.6455C14.7903 24.763 14.6158 24.822 14.4387 24.8094L12.9718 24.8094L12.583 27.078L15.0421 27.1092L16.3926 27.1371L16.3609 30.2523L18.2416 30.2669L18.2636 27.1541L19.7977 27.2208L19.7757 30.3337L21.6685 30.3558L21.6884 27.1916C24.8652 27.0505 27.0879 26.2682 27.3827 23.266C27.6225 20.8466 26.5362 19.7401 24.707 19.2988C25.9143 18.7391 26.5933 17.4279 26.361 16.1049ZM23.6798 22.8394C23.6631 25.2052 19.6378 24.8457 18.374 24.8797L18.4034 20.7293C19.6404 20.712 23.6512 20.3706 23.641 22.8487L23.6798 22.8394ZM22.8333 16.9207C22.8254 19.0668 19.4702 18.764 18.4148 18.7687L18.398 14.9815C19.4678 14.994 22.8103 14.6887 22.7945 16.93L22.8333 16.9207Z" fill="white"/>
</svg>
