<?xml version="1.0" encoding="utf-8"?><svg viewBox="0 0 1920 1499" xmlns="http://www.w3.org/2000/svg" xmlns:xlink="http://www.w3.org/1999/xlink"><style>:root>svg{display:none}:root>svg:target{display:block}</style><svg viewBox="0 0 1088 1074" id="about-figure" xmlns="http://www.w3.org/2000/svg"><path opacity=".8" fill-rule="evenodd" clip-rule="evenodd" d="M4.651 252.31c-34.944 277.584 135.541 433.979 226.17 481.613 278.858 146.565 112.175 316.607 366.578 339.707 63.731 5.78 176.135-96.45 191.622-102.255 25.61-9.6 13.508-62.836 50.196-140.359 36.688-77.524 45.918-71.583 110.622-68.981 0 0 63.251-21.396 65.251-71.587 2-50.193 198.58-501.919-64.722-562.781-247.384-57.182-302.803-42.17-647.832-117.249C202.552-11.338 39.596-25.275 4.651 252.31z"/></svg><svg viewBox="0 0 144 128" id="about-sub-icon-1" xmlns="http://www.w3.org/2000/svg"><rect width="144" height="128" rx="8"/><rect x="19.636" y="12.8" width="19.636" height="6.4" rx="3.2"/><rect x="45.818" y="12.8" width="6.545" height="6.4" rx="3.2"/><rect x="58.909" y="12.8" width="6.545" height="6.4" rx="3.2"/><rect x="19.636" y="32" width="19.636" height="6.4" rx="3.2"/><rect x="45.818" y="32" width="6.545" height="6.4" rx="3.2"/><rect x="58.909" y="32" width="6.545" height="6.4" rx="3.2"/><rect x="19.636" y="51.2" width="19.636" height="6.4" rx="3.2"/><rect x="45.818" y="51.2" width="6.545" height="6.4" rx="3.2"/><rect x="58.909" y="51.2" width="6.545" height="6.4" rx="3.2"/><rect x="19.636" y="70.4" width="19.636" height="6.4" rx="3.2"/><rect x="45.818" y="70.4" width="6.545" height="6.4" rx="3.2"/><rect x="58.909" y="70.4" width="6.545" height="6.4" rx="3.2"/><rect x="19.636" y="89.6" width="19.636" height="6.4" rx="3.2"/><rect x="45.818" y="89.6" width="6.545" height="6.4" rx="3.2"/><rect x="58.909" y="89.6" width="6.545" height="6.4" rx="3.2"/><rect x="19.636" y="108.8" width="19.636" height="6.4" rx="3.2"/><rect x="45.818" y="108.8" width="6.545" height="6.4" rx="3.2"/><rect x="58.909" y="108.8" width="6.545" height="6.4" rx="3.2"/><ellipse cx="112.909" cy="40" rx="27.818" ry="27.2"/><path d="M131.545 40c0 10.03-8.322 18.2-18.636 18.2S94.272 50.03 94.272 40s8.323-18.2 18.637-18.2 18.636 8.17 18.636 18.2z"/><path d="M121.727 40c0 4.728-3.927 8.6-8.818 8.6s-8.818-3.872-8.818-8.6c0-4.729 3.927-8.6 8.818-8.6s8.818 3.871 8.818 8.6z"/><path d="M112.091 12.8h1.636v54.4h-1.636z"/><path d="M140.727 39.2v1.6H85.091v-1.6z"/><path d="M133.412 58.426l-1.15 1.138L92.65 21.327l1.15-1.139z"/><path d="M92.65 58.426l1.15 1.138 39.613-38.237-1.15-1.139z"/></svg><svg viewBox="0 0 208 128" id="about-sub-icon-2" xmlns="http://www.w3.org/2000/svg"><path fill-rule="evenodd" clip-rule="evenodd" d="M64.279 27.538C72.945 11.19 90.483 0 110.724 0c26.558 0 48.485 19.27 51.787 44.209h2.382c23.808 0 43.107 18.757 43.107 41.895C208 109.243 188.7 128 164.893 128H50.443C22.584 128 0 106.05 0 78.974v-4.278C0 47.619 22.584 25.67 50.443 25.67c4.791 0 9.434.65 13.836 1.868z"/><path fill-rule="evenodd" clip-rule="evenodd" d="M136 69.5c0 13.531-10.969 24.5-24.5 24.5S87 83.031 87 69.5 97.969 45 111.5 45 136 55.969 136 69.5z"/><path fill-rule="evenodd" clip-rule="evenodd" d="M121.896 62.93c-.22-3.386-3.234-4.418-7.092-4.597l.173-4.706-3.052.111-.178 4.614-2.377.112.159-4.624-2.987.109-.174 4.705-6.029.265-.051 3.057s2.209-.128 2.169-.085c.826-.108 1.552.409 1.667 1.186l-.377 12.929c-.026.27-.162.529-.379.717-.217.188-.497.29-.777.285l-2.328.113-.718 3.459 3.901-.144 2.142-.062-.189 4.71 2.984-.123.173-4.706 2.431-.018-.173 4.706 3.002-.113.173-4.784c5.047-.459 8.609-1.813 9.21-6.373.488-3.674-1.186-5.263-4.07-5.788 1.941-.94 3.077-2.973 2.767-4.954zm-4.545 10.56c-.13 3.529-6.418 3.3-8.399 3.446l.227-6.192c1.938-.12 8.235-.935 8.111 2.762l.061-.017zm-1.387-9.066c-.106 3.209-5.357 3.012-7.012 3.1l.139-5.66c1.678-.063 6.935-.775 6.812 2.577l.061-.017z"/></svg><svg viewBox="0 0 738 687" id="advantages-figure" xmlns="http://www.w3.org/2000/svg"><path fill-rule="evenodd" clip-rule="evenodd" d="M495.557 681.373C357.112 730.959 10.224 405.948.89 337.999c-4.707-34.26 8.45-124.56 58.945-207.98C120.095 30.468 208.858-8.177 275.53 1.419c122.541 17.639 387.617 150.206 447.796 278.306 60.179 128.099-89.323 352.062-227.769 401.648z"/><defs><linearGradient id="ada" x1="630.648" y1="654.218" x2="437.873" y2="318.676" gradientUnits="userSpaceOnUse"><stop stop-color="#fff"/><stop offset="1" stop-color="#50B8E4"/></linearGradient></defs></svg><svg viewBox="0 0 53 70" id="btc-icon" xmlns="http://www.w3.org/2000/svg"><path fill-rule="evenodd" clip-rule="evenodd" d="M51.978 28.191c1.07-7.267-4.409-11.195-11.93-13.814l2.432-9.82-6.062-1.54-2.399 9.625-4.732-1.146 2.366-9.657L25.72.333l-2.431 9.821-11.995-2.946-1.458 6.416s4.408 1.015 4.311 1.08c1.675.252 2.876 1.764 2.755 3.47l-6.483 27.04a2.188 2.188 0 01-1.066 1.29c-.51.27-1.107.324-1.657.15L3.062 45.54l-2.95 6.874 7.747 1.965 4.247 1.112-2.464 9.821 5.932 1.473 2.432-9.82 4.797 1.374-2.431 9.821 5.965 1.506 2.463-9.984c10.147 1.964 17.765 1.178 20.974-8.086 2.593-7.464 0-11.785-5.446-14.567 4.24-.853 7.38-4.481 7.65-8.839zM38.395 47.44c-1.847 7.463-14.295 3.273-18.315 2.422l3.242-13.094c3.922.884 16.856 2.848 14.944 10.672h.13zm1.816-19.347c-1.653 6.776-12.026 3.273-15.365 2.488l2.82-11.981c3.371.85 14.166 2.422 12.416 9.493h.13z"/></svg><svg viewBox="0 0 33 16" id="card-arrow" xmlns="http://www.w3.org/2000/svg"><path d="M32.707 8.707a1 1 0 000-1.414L26.343.929a1 1 0 10-1.414 1.414L30.586 8l-5.657 5.657a1 1 0 001.414 1.414l6.364-6.364zM0 9h32V7H0v2z"/></svg><svg viewBox="0 0 176 176" id="card-icon-1" xmlns="http://www.w3.org/2000/svg"><path d="M85.392 76.184l-32.984 55.434c-1.159 1.948.29 4.382 2.607 4.382h65.97c2.318 0 3.766-2.434 2.607-4.382L90.607 76.184c-1.159-1.947-4.056-1.947-5.215 0z"/><g filter="url(#aga)"><path d="M40.953 63.412l-4.107-14.477c-.266-.937-1.507-1.251-2.233-.565L23.392 58.968c-.727.686-.394 1.858.598 2.109l15.328 3.879c.993.25 1.901-.607 1.635-1.544z"/></g><path d="M88 112.51c-1.842 0-3.362-1.351-3.463-3.079l-.766-13.151C83.638 94 85.57 92.085 88 92.085s4.362 1.916 4.229 4.195l-.766 13.151c-.1 1.728-1.621 3.079-3.463 3.079zm0 15.32c2.339 0 4.235-1.601 4.235-3.575 0-1.974-1.896-3.574-4.235-3.574-2.34 0-4.235 1.6-4.235 3.574 0 1.974 1.896 3.575 4.235 3.575zM88 40c-13.1 0-25.39 3.488-36 9.5L63.398 69A49.889 49.889 0 0188 62.554 49.89 49.89 0 01112.602 69L124 49.449C113.39 43.436 101.101 40 88 40zM27.117 136c4.386 0 7.942-3.429 7.942-7.66 0-4.23-3.556-7.659-7.942-7.659-4.385 0-7.94 3.429-7.94 7.659 0 4.231 3.555 7.66 7.94 7.66z"/><path d="M123.674 50.213L112.353 68.76c14.522 7.833 24.468 22.421 25.021 39.209.027.823.736 1.478 1.607 1.478h19.408c.905 0 1.631-.706 1.611-1.562-.587-24.702-15.06-46.163-36.326-57.672zM148.883 136c4.385 0 7.941-3.429 7.941-7.66 0-4.23-3.556-7.659-7.941-7.659-4.386 0-7.942 3.429-7.942 7.659 0 4.231 3.556 7.66 7.942 7.66zM52.326 50.213a72.374 72.374 0 00-11.912 8.067l1.735 6.124c.275.97-.663 1.856-1.688 1.596l-6.474-1.64C23.118 76.016 16.396 91.213 16 107.888c-.02.854.708 1.558 1.611 1.558H37.02c.87 0 1.579-.655 1.606-1.478.553-16.788 10.499-31.376 25.021-39.21l-11.32-18.546z"/><defs><filter id="aga" x="12" y="37" width="48" height="47" filterUnits="userSpaceOnUse" color-interpolation-filters="sRGB"><feFlood flood-opacity="0" result="BackgroundImageFix"/><feColorMatrix in="SourceAlpha" values="0 0 0 0 0 0 0 0 0 0 0 0 0 0 0 0 0 0 127 0" result="hardAlpha"/><feOffset dx="4" dy="4"/><feGaussianBlur stdDeviation="7.5"/><feColorMatrix values="0 0 0 0 0 0 0 0 0 0 0 0 0 0 0 0 0 0 0.25 0"/><feBlend in2="BackgroundImageFix" result="effect1_dropShadow_71_112"/><feBlend in="SourceGraphic" in2="effect1_dropShadow_71_112" result="shape"/></filter></defs></svg><svg viewBox="0 0 176 176" id="card-icon-2" xmlns="http://www.w3.org/2000/svg"><path d="M142 47.549v16.826h-20.042V47.549c-.009-5.817 4.462-10.54 9.987-10.549h.05c5.519 0 9.995 4.705 10.005 10.515v.034z"/><path d="M59.888 37h72.057c-5.525.01-9.996 4.732-9.986 10.549v77.291c-.009 7.823-6.036 14.16-13.468 14.16h-.041c-.311 0-.619-.012-.926-.035-7.06-.52-12.534-6.705-12.526-14.156v-9.165h-45.13v-.127l.476-68.596c0-5.525 4.296-9.921 9.544-9.921zm39.268 33.541V56.982L84.954 49.64l-14.198 7.322v13.58c0 3.475 2.137 7.73 4.866 9.691l9.332 6.698 9.333-6.698c2.729-1.96 4.869-6.216 4.869-9.69z"/><path d="M107.524 138.965l-.002.035H47.468c-7.432 0-13.46-6.337-13.468-14.16v-9.196h60.998v9.165c-.008 7.451 5.465 13.636 12.526 14.156zm-8.368-81.983v13.559c0 3.474-2.14 7.73-4.87 9.69l-9.332 6.699-9.332-6.698c-2.729-1.96-4.867-6.217-4.867-9.691V56.96l14.2-7.322 14.2 7.343zm8.258 40.761H64.071c-.997 0-1.806-.85-1.806-1.901 0-1.05.809-1.902 1.806-1.902h43.343c.997 0 1.806.852 1.806 1.901 0 1.051-.809 1.902-1.806 1.902zm0 8.792H64.071c-.997 0-1.806-.851-1.806-1.902 0-1.049.809-1.901 1.806-1.901h43.343c.997 0 1.806.852 1.806 1.901 0 1.051-.809 1.902-1.806 1.902z"/><path d="M83.18 73.968h-.004a1.764 1.764 0 01-1.279-.563l-3.635-3.865a1.97 1.97 0 01-.472-1.846 1.856 1.856 0 011.29-1.345 1.747 1.747 0 011.75.516l2.357 2.506 5.902-6.21a1.742 1.742 0 012.554 0 1.972 1.972 0 010 2.689l-7.185 7.561c-.34.356-.799.557-1.278.557z"/></svg><svg viewBox="0 0 176 176" id="card-icon-3" xmlns="http://www.w3.org/2000/svg"><path d="M147 122.224v3.592c0 3.968-5.419 7.184-12.103 7.184H42.103C35.42 133 30 129.784 30 125.816v-3.592c0-.662.903-1.198 2.017-1.198h112.966c1.114 0 2.017.536 2.017 1.198z"/><path d="M68.188 120.812h40.624v2.276c0 1.884-2.728 3.412-6.093 3.412H74.281c-3.365 0-6.094-1.528-6.094-3.412v-2.276zM39.75 127.312a1.624 1.624 0 11-.001-3.249 1.624 1.624 0 01.001 3.249zM46.25 127.312a1.624 1.624 0 11-.001-3.249 1.624 1.624 0 01.001 3.249zM58.112 127.312h-5.85c-1.077 0-1.95-.727-1.95-1.624 0-.898.873-1.626 1.95-1.626h5.85c1.078 0 1.95.728 1.95 1.626 0 .897-.872 1.624-1.95 1.624z"/><path d="M142.993 49.351v71.675H34.007V49.351c0-4.06 3.614-7.351 8.073-7.351h92.84c4.459 0 8.073 3.291 8.073 7.351z"/><path d="M133.377 49.982c-12.226.403-89.886 5.087-91.34 64.658a.818.818 0 010-.321V51.993c0-1.11.904-2.01 2.02-2.01h89.32z"/><path d="M134.979 51.99v62.239a2.015 2.015 0 01-2.021 2.008H44.041a2.029 2.029 0 01-1.333-.502 2.006 2.006 0 01-.688-1.104c1.455-59.57 79.116-64.247 91.342-64.649.342.08.661.238.93.462.447.39.698.956.687 1.546z"/><rect opacity=".4" x="64.573" y="87.158" width="48.082" height="1.825" rx=".912"/><path fill-rule="evenodd" clip-rule="evenodd" d="M105.865 79.139c2.359 9.427-3.4 18.974-12.864 21.324-9.463 2.351-19.048-3.386-21.408-12.813-2.36-9.427 3.4-18.974 12.864-21.324 9.464-2.35 19.048 3.386 21.408 12.813z"/><path fill-rule="evenodd" clip-rule="evenodd" d="M95.816 79.159c-.246-2.486-2.384-3.33-5.091-3.576l-.006-3.44-2.135-.009v3.372l-1.661.012-.014-3.38-2.09-.01.007 3.44-4.216.015.047 2.236s1.544-.028 1.517.002a1.114 1.114 0 011.199.918l.085 9.453a.742.742 0 01-.782.7l-1.627.014-.41 2.51 2.728.01 1.498.019-.004 3.442 2.086-.002-.006-3.44 1.703.06.005 3.439 2.1.006-.009-3.496c3.523-.187 5.98-1.073 6.279-4.393.242-2.675-.973-3.887-3.007-4.357a3.258 3.258 0 001.804-3.545zm-2.909 7.467c.005 2.614-4.464 2.255-5.865 2.305l-.008-4.586c1.372-.031 5.818-.447 5.83 2.291l.043-.01zm-.996-6.532c.012 2.371-3.713 2.07-4.883 2.085l-.056-4.185c1.187.004 4.892-.366 4.896 2.11l.043-.01z"/><rect x="63.886" y="88.526" width="49.456" height="1.825" rx=".912"/><path d="M69.153 90.351h36.405v16.421H69.153z"/><rect x="82.204" y="57.737" width="1.832" height="7.07" rx=".916"/><rect x="87.699" y="52.263" width="1.832" height="10.947" rx=".916"/><rect x="93.194" y="54.088" width="1.832" height="3.649" rx=".916"/><g filter="url(#aib)" clip-path="url(#aia)"><path fill-rule="evenodd" clip-rule="evenodd" d="M88.614 110.649c4.173 0 7.556-3.369 7.556-7.526s-3.383-7.526-7.556-7.526-7.555 3.37-7.555 7.526c0 4.157 3.382 7.526 7.555 7.526z"/><path d="M91.164 100.799a.552.552 0 01.797-.028c.228.218.24.586.028.821l-3.95 4.357a.553.553 0 01-.779.045l-1.975-1.743a.593.593 0 01-.06-.819.552.552 0 01.795-.063l1.564 1.38 3.58-3.95z"/></g><defs><clipPath id="aia"><path transform="translate(78.54 93.088)" d="M0 0h20.149v20.07H0z"/></clipPath><filter id="aib" x="77.059" y="92.597" width="23.112" height="23.053" filterUnits="userSpaceOnUse" color-interpolation-filters="sRGB"><feFlood flood-opacity="0" result="BackgroundImageFix"/><feColorMatrix in="SourceAlpha" values="0 0 0 0 0 0 0 0 0 0 0 0 0 0 0 0 0 0 127 0" result="hardAlpha"/><feOffset dy="1"/><feGaussianBlur stdDeviation="2"/><feColorMatrix values="0 0 0 0 0.2 0 0 0 0 0.2 0 0 0 0 0.2 0 0 0 0.25 0"/><feBlend in2="BackgroundImageFix" result="effect1_dropShadow_71_141"/><feBlend in="SourceGraphic" in2="effect1_dropShadow_71_141" result="shape"/></filter></defs></svg><svg viewBox="0 0 60 48" id="check-mark-icon" xmlns="http://www.w3.org/2000/svg"><path d="M51.595 2.236a4.67 4.67 0 016.754-.24c1.929 1.861 2.033 4.987.233 6.982L25.13 46.031c-1.747 1.935-4.66 2.102-6.603.38L1.802 31.59c-2.004-1.776-2.236-4.895-.518-6.966 1.718-2.072 4.734-2.312 6.738-.536L21.27 35.827l30.325-33.59z"/></svg><svg viewBox="0 0 14 14" id="check-mark-icon-2" xmlns="http://www.w3.org/2000/svg"><path d="M1 6.5L5.846 13 13 1"/></svg><svg viewBox="0 0 987 783" id="contacts-figure-1" xmlns="http://www.w3.org/2000/svg"><path fill-rule="evenodd" clip-rule="evenodd" d="M947.63 621.361C860.41 798.568 222.097 808.62 149.602 751.705 113.05 723.008 41.367 623.494 12.132 495.751c-34.888-152.445 14.63-272.68 87.912-325.682 134.692-97.418 514.268-216.95 692.014-149.42C969.8 88.18 1034.85 444.155 947.63 621.362z"/><defs><linearGradient id="ala" x1="1055.71" y1="683.249" x2="507" y2="311" gradientUnits="userSpaceOnUse"><stop offset="0" stop-color="#0043FF" stop-opacity=".49"/><stop offset="1" stop-color="#39D3EC" stop-opacity=".69"/></linearGradient></defs></svg><svg viewBox="0 0 557 442" id="contacts-figure-2" xmlns="http://www.w3.org/2000/svg"><path fill-rule="evenodd" clip-rule="evenodd" d="M535.06 350.533c-49.21 99.992-409.376 105.65-450.283 73.531-20.625-16.194-61.075-72.35-77.574-144.433-19.69-86.022 8.248-153.867 49.597-183.774C132.797 40.89 346.97-26.55 447.27 11.56c100.29 38.11 137 238.981 87.79 338.973z"/><defs><linearGradient id="ama" x1="497.12" y1="387.589" x2="406.68" y2="230.949" gradientUnits="userSpaceOnUse"><stop stop-color="#07BEAA"/><stop offset="1" stop-color="#22AE0F"/></linearGradient></defs></svg><svg viewBox="0 0 22 34" id="eth-icon" xmlns="http://www.w3.org/2000/svg"><path fill-rule="evenodd" clip-rule="evenodd" d="M1.644 11.17l6.523 12.035 13.688.128L21.838.487 1.644 11.17zM.465 13.13l1.574 20.26 18.638-8.098-13.642-.205L.465 13.13z"/></svg><svg viewBox="0 0 1351 1498" id="faq-figure-1" xmlns="http://www.w3.org/2000/svg"><path fill-rule="evenodd" clip-rule="evenodd" d="M1299.89 1469.72s55.1 59.95-634.19 4.98C335.596 1448.38-39.788 1192.69 3.41 915.341 31.068 737.77 291.274 513.609 463.365 312.864 583.743 172.44 632.001 16.717 650.848 10.312 771.16-30.573 987.133 61.419 1071.5 89.618c131.94 44.099 278.86 414.402 278.86 414.402l-50.47 965.7z"/></svg><svg viewBox="0 0 1352 1499" id="faq-figure-2" xmlns="http://www.w3.org/2000/svg"><path opacity=".6" fill-rule="evenodd" clip-rule="evenodd" d="M1300.65 1470.21s55.1 59.95-634.193 4.98c-330.103-26.32-705.488-282.01-662.29-559.359C31.825 738.261 292.032 514.1 464.122 313.354 584.501 172.931 632.758 17.207 651.605 10.802c120.309-40.885 336.279 51.107 420.655 79.307 131.94 44.098 278.86 414.401 278.86 414.401l-50.47 965.7z"/></svg><svg viewBox="0 0 583 495" id="footer.-figure-1" xmlns="http://www.w3.org/2000/svg"><path fill-rule="evenodd" clip-rule="evenodd" d="M456.537 481.3C359.569 546.036 30.027 363.093 9.75 312.686c-10.224-25.415-17.503-97.322 5.273-171.127C42.203 53.481 103.052 6.711 156.2 1.254c97.686-10.03 327.191 40.809 398.182 127.643 70.991 86.835-.879 287.667-97.846 352.403z"/><defs><linearGradient id="aqa" x1="624.72" y1="544.759" x2="624.72" y2="-21.085" gradientUnits="userSpaceOnUse"><stop stop-color="#39D3EC" stop-opacity=".9"/><stop offset="1" stop-color="#50B8E4" stop-opacity=".9"/></linearGradient></defs></svg><svg viewBox="0 0 327 282" id="footer.-figure-2" xmlns="http://www.w3.org/2000/svg"><path fill-rule="evenodd" clip-rule="evenodd" d="M256.068 274.195c-54.388 36.88-239.226-67.342-250.599-96.059-5.735-14.479-9.818-55.444 2.957-97.49C23.671 30.468 57.801 3.823 87.612.714 142.403-5 271.131 23.963 310.95 73.432c39.818 49.47-.493 163.883-54.881 200.763z"/><defs><linearGradient id="ara" x1="225.889" y1="282" x2="225.889" y2="174.394" gradientUnits="userSpaceOnUse"><stop stop-color="#fff"/><stop offset="1" stop-color="#BCF4FF" stop-opacity=".8"/></linearGradient></defs></svg><svg viewBox="0 0 690 692" id="footer.-figure-3" xmlns="http://www.w3.org/2000/svg"><path fill-rule="evenodd" clip-rule="evenodd" d="M689.431 691.059H114.163s-176.686-161.16-90.445-357.073c86.242-195.912 219.294-27.542 305.432-226.603 86.139-199.061 360.281-60.38 360.281-60.38V691.06z"/></svg><svg viewBox="0 0 34 34" id="ftc-icon" xmlns="http://www.w3.org/2000/svg"><path fill-rule="evenodd" clip-rule="evenodd" d="M15.76.245h.005c.42-.019.968-.043 1.384-.045 1.472.006 2.24.582 1.94 1.712-.37 1.387-2.263 3.269-4.805 4.955-.48.229-.977-.42-.874-.695.02-.04.05-.076.084-.104 2.22-1.473 3.872-3.115 4.2-4.327.287-1.097-.576-1.592-2.15-1.478l.215-.018zm-.38.032l.163-.014a7.04 7.04 0 00-.163.014zm9.876 3.794c.285-1.062-.07-1.795-.924-2.191-.274-.131-.613-.274-.934-.41a80.12 80.12 0 01-.264-.11 4.029 4.029 0 00-.206-.085l.206.084c.807.373 1.143 1.063.875 2.065-.797 2.996-6.684 7.645-13.145 10.383a30.775 30.775 0 01-3.45 1.245.527.527 0 00-.251.19c-.259.37-.158 1.266.46 1.177a32.695 32.695 0 003.666-1.32c6.867-2.908 13.119-7.844 13.967-11.028zm6.508 4.89l.206.394c.127.346.173.472.19.603.011.075.012.151.014.271a.096.096 0 01-.028.058c-.187-.063-.641-.924-.684-1.3a1.911 1.911 0 00-.22-.909l.522.882zm-.588-.994l.066.111a1.638 1.638 0 00-.066-.111zm2.096 4.792c.097.374.084.81-.048 1.308-.84 3.137-6.18 7.737-12.646 11.131-.723.302-1.165-.244-.992-.709a.79.79 0 01.369-.406c6.575-3.45 12.005-8.127 12.852-11.316.142-.53.15-.992.035-1.383l.059.179c.129.391.275.837.37 1.196zm-.465-1.481l.035.106a1.766 1.766 0 00-.035-.106zM4.194 6.599c-.016.06-.028.122-.036.183a.777.777 0 00.128.576c.519.706 2.467.544 4.994-.523.796-.34 1.568-.731 2.312-1.172.16-.139.046-.353-.007-.433-.054-.08-.32-.382-.548-.298A15.8 15.8 0 019.2 5.86c-2.008.853-3.558.982-3.971.42-.11-.15-.14-.35-.072-.603.102-.317.266-.611.484-.865.377-.452.804-.86 1.272-1.217a19.663 19.663 0 013.806-2.146c.168-.072.332-.133.495-.194l.143-.053c1.995-.653 3.301-.452 3.03.565-.083.315-.308.668-.644 1.07.143.148.92.327 1.26.16.415-.475.694-.924.8-1.315.31-1.168-1.028-1.48-3.17-.906-.168.045-.263.073-.38.108l-.174.052a16.315 16.315 0 00-1.078.371c-.168.063-.286.112-.513.206l-.037.015c-.155.066-.232.1-.353.155l-.076.034c-.17.077-.24.111-.409.193a12.195 12.195 0 00-.387.197 11.664 11.664 0 00-.618.34h-.001l-.128.075a9.04 9.04 0 00-.366.22l-.25.16-.12.08a8.77 8.77 0 00-.347.235l-.024.016c-.135.095-.203.145-.303.218l-.089.065c-.12.089-.186.14-.286.218l-.102.079c-.151.12-.226.183-.337.275l-.09.076a8.07 8.07 0 00-.426.372c-.338.3-.65.626-.935.976a3.78 3.78 0 00-.51.806 1.906 1.906 0 00-.1.282zm-1.9 2.672c.01-.09.028-.178.051-.264a2.83 2.83 0 01.146-.408c.089-.183.222-.42.325-.595a6.09 6.09 0 01.28-.421l.102-.144.038-.055c.125-.179.252-.363.365-.515l.231-.3.004-.005c-.125.162-.237.329-.349.496l-.052.078a3.147 3.147 0 00-.367.797c-.105.397-.06.715.116.955.543.74 2.33.724 4.744-.077.35-.05.317.594.316.6-.03.352-.077.882-3.146 1.26-.88.108-2.047.1-2.604-.552l-.014-.018a1.03 1.03 0 01-.168-.38 2.012 2.012 0 01-.019-.452zM1.07 11.707c-.03.11-.052.222-.066.336-.052.42.03.77.234 1.046.948 1.291 4.507.995 9.127-.962 5.85-2.48 11.184-6.692 11.908-9.407.261-.98-.112-1.628-1.025-1.964L21.22.748a8.514 8.514 0 00-.618-.15c-.393-.083-.412-.082-.561-.072h-.002c.785.289 1.126.884.888 1.779-.662 2.482-5.538 6.333-10.89 8.6-4.217 1.788-7.473 2.062-8.34.88-.232-.318-.293-.74-.152-1.268.033-.122.073-.242.121-.36-.15.346-.307.752-.442 1.1l-.07.18c-.032.09-.06.18-.084.27zm-.746 3.292l.135-.908.119-.604c.01-.046.021-.093.034-.14a4.19 4.19 0 00-.048.28l-.028.177c-.036.426.05.785.26 1.07a1.7 1.7 0 00.615.505c.212.189.1.918.098.924-.038.222-.113.483-.258.46a1.757 1.757 0 01-.649-.559v.028a.722.722 0 01-.05-.084L.524 16.1l-.014-.022c-.01-.017-.02-.033-.028-.05a.27.27 0 00-.018-.03l-.015-.025a1.511 1.511 0 01-.107-.365l-.007-.056-.004-.035a1.607 1.607 0 01-.008-.522v.004zm.044 3.993c.006.021.012.042.02.061v-.004l.007.018.012.03c.047.115.107.223.18.323v-.021c1.215 1.696 5.846 1.322 11.866-1.225 7.616-3.231 14.553-8.71 15.492-12.239.258-.965.04-1.685-.565-2.155l-.672-.504-.575-.388c.298.22.85.626.802 1.59C26.661 9.998 5.28 23.153.513 18.05a1.665 1.665 0 01-.312-.908c.005.315.027.687.048 1.03l.016.278v.017c.006.033.006.069.006.1a.038.038 0 01.004.022l.008.04a.489.489 0 01.01.044c.013.095.035.188.064.28l.011.04zm.887 3.61l-.014-.017-.005-.007-.006-.007-.01-.014a1.131 1.131 0 01-.237-.48 67.714 67.714 0 00-.105-.376 27.42 27.42 0 01-.281-1.06c.053.213.146.413.276.591l.019.026c1.312 1.716 6.113 1.307 12.317-1.32 7.917-3.36 15.127-9.053 16.107-12.725.223-.84.102-1.495-.308-1.974l.152.164.004.004.002.003h.001c.264.283.554.595.775.858.411.488.53 1.157.304 2.004-.999 3.745-8.354 9.554-16.43 12.975-6.337 2.688-11.232 3.101-12.564 1.344l.003.012zM28.902 5.126l.106.114a1.674 1.674 0 00-.106-.114zM.582 20.58l.015.06-.014-.06zm1.71 4.512c.21.454.28.504.28.504v-.004c.098.113.204.22.317.318 1.68 1.419 6.425.896 12.478-1.658 4.859-2.058 9.461-4.968 12.62-7.789.127-.179.32-.45.156-.894-.075-.204-.311-.65-.86-.36-3.157 2.816-7.75 5.72-12.601 7.775-6.46 2.735-11.442 3.15-12.769 1.344.111.24.23.48.354.718l.024.046zm1.838 2.706a17.18 17.18 0 01-.516-.635c.006.01.013.017.02.026a.508.508 0 01.022.025c.787.993 2.737 1.277 5.46.829.55-.03.91.429.977.553.076.145.156.4-.178.498-2.57.42-4.443.184-5.273-.702a32.683 32.683 0 01-.512-.599v.005zm2.085 2.093a1.996 1.996 0 01-.107-.084v-.004l.107.088zm0 0c1.577 1.158 5.578.75 10.69-1.274.77-.236 1.028.278 1.03.284.044.104.098.367-.335.582-4.905 1.942-8.751 2.34-10.295 1.25l-.337-.257a30.072 30.072 0 01-.753-.585zm22.636-1.337c-.107.174-.24.33-.395.465-1.602 1.288-3.715 2.563-5.928 3.501-1.866.79-3.497 1.212-4.704 1.274-.433.008-.983.009-1.456 0 1.392 0 3.374-.478 5.67-1.45 2.51-1.064 4.903-2.509 6.721-3.969a.741.741 0 01.14-.073l.036.066a1.27 1.27 0 01-.084.182v.004zm-12.774 5.233c.093.007.19.007.29.007l-.29-.007zm-2.13-.26c4.581.735 16.087-4.998 18.594-10.121.15-.34.297-.781.427-1.174v-.001l.003-.008.06-.179c-1.023 2.816-6.386 6.981-12.253 9.468-3.624 1.535-6.62 2.083-8.287 1.676.441.114.99.235 1.42.33l.036.008zm19.743-14.58c-.037.31-.078.645-.124.913a2.68 2.68 0 01-.056.248c-.822 3.083-6.876 7.864-13.524 10.68-4.322 1.832-7.832 2.381-9.53 1.692l-.215-.1c-.383-.177-.83-.383-1.171-.562 5.832 2.43 23.831-7.406 24.69-13.492l-.02.22-.05.4zm-6.07 4.988c3.241-2.393 5.564-4.902 6.076-6.823h.001c.075-.267.11-.543.102-.82l-.031-.54-.1-.957c.034.34.003.684-.093 1.012-.53 1.989-2.932 4.588-6.292 7.065a.98.98 0 00-.34.547c-.08.374.152.837.677.516z"/></svg><svg viewBox="0 0 1917 407" id="graph-1" xmlns="http://www.w3.org/2000/svg"><g opacity=".15" clip-path="url(#aua)"><path fill-rule="evenodd" clip-rule="evenodd" d="M4.959 275.07l110.251-58.323 113.988 34.994 113.054-104.085L452.503 18.447 566.491 47.16l109.317 88.831 113.988 55.632 112.12-59.221L1010.3 109.97 1125.22 4.988l112.12 81.653 113.99 130.106 110.25 41.275 114.92-117.993 108.99-117.096 110.58 24.227 113.99 12.562V407H4.959" fill-opacity=".1"/><path fill-rule="evenodd" clip-rule="evenodd" d="M1127.13 4.09l112.66 82.142 113.68 129.906 109.19 40.927 114.24-117.422.01-.017 109.16-117.412 110.87 24.32 113.72 12.547-.22 1.988-113.82-12.559-109.87-24.098-108.39 116.593-.01.008v.008l-115.16 118.376-110.89-41.563-113.87-130.118L1127.28 6.67l-114.31 104.54-108.303 22.443-112.23 59.349-114.332-55.865-109.026-88.7-112.954-28.486L346.447 148.64 233.142 253.079l-113.931-35.017L8.392 275.215l-.917-1.778L119.02 215.91l113.612 34.92 112.372-103.579L455.409 17.708l114.589 28.898 109.191 88.835 113.212 55.317 111.582-59.006 108.047-22.389L1127.13 4.09z"/><path d="M11 273.5a6.5 6.5 0 11-13 0 6.5 6.5 0 0113 0zm113-57a6.5 6.5 0 11-13 0 6.5 6.5 0 0113 0zm114 34a6.5 6.5 0 11-13 0 6.5 6.5 0 0113 0zm224-231a6.5 6.5 0 11-13 0 6.5 6.5 0 0113 0zm-114 132a6.5 6.5 0 11-13 0 6.5 6.5 0 0113 0zM571.908 46.952a6.5 6.5 0 11-13 0 6.5 6.5 0 0113 0zM684 133.5a6.5 6.5 0 11-13 0 6.5 6.5 0 0113 0zm114 56a6.5 6.5 0 11-13 0 6.5 6.5 0 0113 0zm112.43-56.471a6.5 6.5 0 11-13 0 6.5 6.5 0 0113 0zM1018 109.5a6.5 6.5 0 11-13 0 6.5 6.5 0 0113 0zm116-102a6.5 6.5 0 11-13 0 6.5 6.5 0 0113 0zm114.95 80.697a6.5 6.5 0 11-13 0 6.5 6.5 0 0113 0zm110.96 127.323a6.5 6.5 0 11-13 0 6.5 6.5 0 0113 0zM1469 256.5a6.5 6.5 0 11-13 0 6.5 6.5 0 0113 0zm117-119a6.5 6.5 0 11-13 0 6.5 6.5 0 0113 0zm107-116a6.5 6.5 0 11-13 0 6.5 6.5 0 0113 0zm116.39 25.452a6.5 6.5 0 11-13 0 6.5 6.5 0 0113 0zm114.72 14.346a6.5 6.5 0 11-13 0 6.5 6.5 0 0113 0z"/></g><defs><linearGradient id="aub" x1="4.959" y1="4.988" x2="4.959" y2="407" gradientUnits="userSpaceOnUse"><stop stop-color="#3A96FD"/><stop offset="1" stop-color="#2E5BFF" stop-opacity=".01"/></linearGradient><clipPath id="aua"><path d="M0 0h1917v407H0z"/></clipPath></defs></svg><svg viewBox="0 0 1920 400" id="graph-2" xmlns="http://www.w3.org/2000/svg"><g opacity=".15" clip-path="url(#ava)"><path fill-rule="evenodd" clip-rule="evenodd" d="M7.307 241.393l110.778 29.954 112.625-93.386 117.196-32.597L455.959 33.478 566.737 5.286l112.625 81.052 110.778 44.049L904.611 96.91l110.779-10.572 112.62 35.239 113.75-36.12 109.66 60.788 112.62 17.62 112.63-66.955h110.77l112.63-10.572 112.62-68.718.86 382.38L7.307 304.824" fill-opacity=".1"/><path fill-rule="evenodd" clip-rule="evenodd" d="M566.952 4.208l112.894 81.246 110.341 43.876 112.387-33.407 112.916-10.6 112.52 33.448 113.86-34.394 109.88 60.908 112.09 17.536 112.55-66.912h112.85l110.51-10.545 112.42-68.598 1.04 1.708-112.82 68.837-111.05 10.598h-112.4l-112.7 67-113.15-17.703-109.45-60.67-113.62 34.323-112.73-33.508-112.334 10.545-112.863 33.549-111.215-44.224L566.522 6.364 454.636 32.62 348.445 146.252l-117.253 32.613-109.147 93.569L7.082 245.891l.45-1.949 113.978 26.316 108.717-93.201 117.14-32.581L453.589 30.812 566.952 4.208z"/><path d="M15 245c0 3.25-2.844 6-6.5 6S2 248.25 2 245s2.844-6 6.5-6 6.5 2.75 6.5 6zm112 26a6 6 0 11-12 0 6 6 0 0112 0zm108-91.5a6.5 6.5 0 11-13 0 6.5 6.5 0 0113 0zM460 34a7 7 0 11-14 0 7 7 0 0114 0zM351 145.5a6.5 6.5 0 11-13 0 6.5 6.5 0 0113 0zM571.945 7.048c0 3.29-2.833 6.048-6.443 6.048-3.611 0-6.443-2.758-6.443-6.048S561.891 1 565.502 1c3.61 0 6.443 2.758 6.443 6.048zm112.819 79.29c0 3.289-2.832 6.047-6.443 6.047-3.61 0-6.443-2.758-6.443-6.047 0-3.29 2.833-6.048 6.443-6.048 3.611 0 6.443 2.758 6.443 6.047zm112.88 42.287c0 3.29-2.833 6.048-6.443 6.048-3.61 0-6.443-2.758-6.443-6.048 0-3.289 2.833-6.048 6.443-6.048 3.61 0 6.443 2.759 6.443 6.048zm112.933-31.264a6.5 6.5 0 11-13 0 6.5 6.5 0 0113 0zM1024.38 87.29c0 3.865-3.14 7-7 7-3.87 0-7-3.135-7-7 0-3.866 3.13-7 7-7 3.86 0 7 3.134 7 7zM1135 118c0 3.314-2.69 6-6 6s-6-2.686-6-6 2.69-6 6-6 6 2.686 6 6zm113-32c0 3.314-2.69 6-6 6s-6-2.686-6-6 2.69-6 6-6 6 2.686 6 6zm114 61c0 3.314-2.69 6-6 6s-6-2.686-6-6 2.69-6 6-6 6 2.686 6 6zm107 15.5c0 3.038-2.46 5.5-5.5 5.5s-5.5-2.462-5.5-5.5 2.46-5.5 5.5-5.5 5.5 2.462 5.5 5.5zM1585 97c0 3.314-2.69 6-6 6s-6-2.686-6-6 2.69-6 6-6 6 2.686 6 6zm116-2c0 3.314-2.69 6-6 6s-6-2.686-6-6 2.69-6 6-6 6 2.686 6 6zm110-11c0 3.866-3.13 7-7 7s-7-3.134-7-7 3.13-7 7-7 7 3.134 7 7zm111-68.5c0 3.038-2.46 5.5-5.5 5.5s-5.5-2.462-5.5-5.5 2.46-5.5 5.5-5.5 5.5 2.462 5.5 5.5z"/></g><defs><linearGradient id="avb" x1="134.85" y1="5.286" x2="134.85" y2="347.181" gradientUnits="userSpaceOnUse"><stop stop-color="#F31818"/><stop offset="1" stop-color="#5D7EF7" stop-opacity=".01"/></linearGradient><clipPath id="ava"><path d="M0 0h1920v400H0z"/></clipPath></defs></svg><svg viewBox="0 0 735 625" id="guarantees-fugure" xmlns="http://www.w3.org/2000/svg"><path fill-rule="evenodd" clip-rule="evenodd" d="M575.565 607.702C453.316 689.439 37.857 458.45 12.292 394.805c-12.89-32.089-22.067-122.88 6.647-216.069C53.206 67.526 129.92 8.473 196.925 1.583 320.08-11.08 609.422 53.11 698.922 162.75s-1.108 363.215-123.357 444.953z"/><defs><linearGradient id="awa" x1="507.731" y1="625" x2="507.731" y2="386.511" gradientUnits="userSpaceOnUse"><stop stop-color="#fff" stop-opacity=".3"/><stop offset="1" stop-color="#BCF4FF" stop-opacity=".8"/></linearGradient></defs></svg><svg viewBox="0 0 36 32" id="icon-atention" xmlns="http://www.w3.org/2000/svg"><path d="M16.696.763L.204 29.712C-.376 30.729.349 32 1.508 32h32.984c1.16 0 1.883-1.271 1.304-2.288L19.304.762a1.496 1.496 0 00-2.608 0z"/><path d="M18 19.5c-.87 0-1.588-.695-1.635-1.583l-.362-6.76C15.94 9.984 16.853 9 18 9c1.148 0 2.06.985 1.997 2.156l-.362 6.761c-.047.888-.765 1.583-1.635 1.583zm0 8c1.105 0 2-.784 2-1.75S19.105 24 18 24s-2 .784-2 1.75.895 1.75 2 1.75z"/></svg><svg viewBox="0 0 170 72" id="logo" xmlns="http://www.w3.org/2000/svg"><g clip-path="url(#aya)"><path d="M7.862 16l31.447-7.5v48L7.862 64V16z"/><path d="M7.862 16l31.447-7.5v48L7.862 64V16z"/><path d="M7.862 16h47.17v48H7.862V16z"/><path d="M7.862 16h47.17v48H7.862V16z"/><path fill-rule="evenodd" clip-rule="evenodd" d="M32.302 32.6c-2.271 0-4.205 1.481-4.915 3.549l-.353 1.03-.977-.448a4.868 4.868 0 00-2.032-.44c-2.74 0-4.96 2.259-4.96 5.047v.615c0 2.787 2.22 5.047 4.96 5.047H39.74c2.183 0 3.953-1.8 3.953-4.022 0-2.222-1.77-4.023-3.953-4.023h-2.234v-1.06c0-2.924-2.33-5.295-5.203-5.295zm-6.377 1.959c1.19-2.35 3.598-3.959 6.377-3.959 3.646 0 6.657 2.77 7.11 6.355h.327c3.269 0 5.918 2.697 5.918 6.023 0 3.326-2.65 6.022-5.918 6.022H24.025C20.2 49 17.1 45.845 17.1 41.953v-.615c0-3.893 3.1-7.048 6.925-7.048a6.82 6.82 0 011.9.269z"/><path d="M69.293 59.398h2.23v-8.381c0-2.7 1.796-4.631 4.17-4.631 2.376 0 3.853 1.62 3.853 4.375v8.637h2.201V50.93c0-2.897 1.882-4.545 4.141-4.545 2.433 0 3.881 1.59 3.881 4.432v8.58H92v-9.092c0-3.636-2.114-5.909-5.56-5.909-2.607 0-4.2 1.307-5.271 2.926-.811-1.648-2.375-2.926-4.808-2.926-2.52 0-3.852 1.335-4.837 2.784v-2.47h-2.23v14.688zM96.899 41.5h2.549v-2.416h-2.549V41.5zm.145 17.898h2.23V44.71h-2.23v14.688zm7.405 0h2.23v-8.41c0-2.756 1.912-4.602 4.489-4.602 2.636 0 4.142 1.704 4.142 4.432v8.58h2.23v-9.12c0-3.495-2.114-5.88-5.734-5.88-2.578 0-4.142 1.277-5.127 2.868V44.71h-2.23v14.688zM122.354 41.5h2.548v-2.416h-2.548V41.5zm.145 17.898h2.23V44.71h-2.23v14.688zm7.405 0h2.23v-8.41c0-2.756 1.912-4.602 4.489-4.602 2.636 0 4.142 1.704 4.142 4.432v8.58h2.23v-9.12c0-3.495-2.114-5.88-5.735-5.88-2.577 0-4.141 1.277-5.126 2.868V44.71h-2.23v14.688zM154.383 64c2.375 0 4.373-.653 5.706-1.96 1.216-1.194 1.911-2.926 1.911-5.2V44.71h-2.23v2.642c-1.216-1.591-3.041-2.955-5.85-2.955-3.563 0-7.038 2.642-7.038 6.932 0 4.29 3.446 6.932 7.038 6.932 2.751 0 4.576-1.392 5.879-3.097v1.733c0 3.438-2.143 5.228-5.445 5.228-2.143 0-4.055-.654-5.763-1.875l-1.014 1.705c1.998 1.363 4.315 2.045 6.806 2.045zm-.029-7.67c-2.78 0-5.184-2.046-5.184-5 0-3.07 2.346-5.001 5.184-5.001s5.503 1.96 5.503 4.972c0 3.011-2.665 5.028-5.503 5.028zM75.8 31.512c4.54 0 7.888-3.562 7.888-7.756 0-4.251-3.318-7.756-7.83-7.756C71.319 16 68 19.562 68 23.756c0 4.252 3.289 7.756 7.8 7.756zm.059-1.982c-3.173 0-5.56-2.585-5.56-5.774s2.241-5.803 5.501-5.803c3.173 0 5.589 2.614 5.589 5.803s-2.27 5.774-5.53 5.774zm11.889 6.234h2.241v-7.44c1.164 1.666 2.969 3.16 5.763 3.16 3.638 0 7.189-2.873 7.189-7.728 0-4.94-3.58-7.756-7.189-7.756-2.765 0-4.54 1.523-5.763 3.303v-2.987h-2.241v19.448zm7.596-6.263c-2.794 0-5.442-2.298-5.442-5.745s2.648-5.774 5.442-5.774c2.853 0 5.298 2.24 5.298 5.745 0 3.648-2.387 5.774-5.297 5.774zm13.071-4.855h11.933c.029-.344.029-.574.029-.775 0-4.366-2.561-7.871-7.014-7.871-4.162 0-7.218 3.447-7.218 7.756 0 4.625 3.376 7.756 7.509 7.756 2.852 0 4.686-1.12 6.199-2.786l-1.397-1.236c-1.222 1.264-2.677 2.097-4.744 2.097-2.649 0-4.977-1.81-5.297-4.94zm0-1.78c.32-2.873 2.299-4.999 4.89-4.999 2.968 0 4.54 2.298 4.802 4.998h-9.692zm15.886 8.301h2.241v-8.503c0-2.786 1.921-4.653 4.511-4.653 2.649 0 4.162 1.723 4.162 4.481v8.675h2.242v-9.22c0-3.534-2.125-5.947-5.763-5.947-2.591 0-4.162 1.293-5.152 2.901v-2.585h-2.241v14.851z"/></g><defs><clipPath id="aya"><path d="M0 0h170v72H0z"/></clipPath></defs></svg><svg viewBox="0 0 33 59" id="question-icon" xmlns="http://www.w3.org/2000/svg"><path d="M11.72 42.002c.052-3.098.407-5.545 1.065-7.342.658-1.796 2-3.788 4.025-5.975l5.169-5.272c2.21-2.474 3.314-5.13 3.314-7.968 0-2.733-.723-4.868-2.17-6.405-1.447-1.562-3.551-2.343-6.313-2.343-2.683 0-4.84.703-6.471 2.11-1.631 1.405-2.447 3.293-2.447 5.662h-7.3C.646 10.251 2.159 6.853 5.13 4.276 8.13 1.672 12.022.37 16.81.37c4.971 0 8.838 1.328 11.6 3.984 2.788 2.63 4.183 6.249 4.183 10.857 0 4.556-2.131 9.048-6.393 13.474l-4.3 4.218c-1.92 2.109-2.88 5.142-2.88 9.1h-7.3zm-.316 12.38c0-1.17.355-2.147 1.065-2.928.737-.807 1.815-1.211 3.236-1.211 1.42 0 2.499.404 3.235 1.21.737.782 1.105 1.758 1.105 2.93 0 1.171-.368 2.148-1.105 2.929-.736.755-1.815 1.132-3.235 1.132s-2.5-.377-3.236-1.132c-.71-.781-1.065-1.758-1.065-2.93z"/></svg><svg viewBox="0 0 57 53" id="rpl-icon" xmlns="http://www.w3.org/2000/svg"><path fill-rule="evenodd" clip-rule="evenodd" d="M42.47.955l-6.049 2.322-5.801 13.464a7.782 7.782 0 01-10.449 4.01l-13.32-6.123-6.05 2.322 17.535 8.061a12.287 12.287 0 0016.498-6.333L42.47.955zM14.487 52.83l6.05-2.323 5.848-13.573a7.782 7.782 0 0110.449-4.01l13.428 6.173 6.05-2.322-17.643-8.11a12.287 12.287 0 00-16.498 6.332L14.486 52.83z"/></svg><svg viewBox="0 0 16 27" id="select-arrow-icon" xmlns="http://www.w3.org/2000/svg"><path d="M2 25l11.314-11.314L2 2.373"/></svg><svg viewBox="0 0 40 40" id="select-btc-icon" xmlns="http://www.w3.org/2000/svg"><path fill-rule="evenodd" clip-rule="evenodd" d="M35.424 16.363c2.053 8.55-3.214 17.144-11.764 19.197-8.55 2.052-17.144-3.215-19.197-11.764C2.411 15.246 7.677 6.65 16.227 4.599c8.55-2.053 17.144 3.214 19.197 11.764z"/><path fill-rule="evenodd" clip-rule="evenodd" d="M26.361 16.105c-.202-2.251-2.123-3.033-4.561-3.276l.022-3.113-1.925-.025-.026 3.052-1.498-.003.014-3.06-1.883-.024-.022 3.113-3.8-.02.024 2.024s1.392-.013 1.368.014c.52-.045.987.321 1.074.84l.002 8.556a.673.673 0 01-.226.462.663.663 0 01-.485.164h-1.467l-.389 2.269 2.46.031 1.35.028-.032 3.115 1.88.015.023-3.113 1.534.067-.022 3.113 1.893.022.02-3.164c3.176-.142 5.399-.924 5.694-3.926.24-2.42-.847-3.526-2.676-3.967a2.952 2.952 0 001.654-3.194zm-2.681 6.734c-.017 2.366-4.042 2.007-5.306 2.04l.03-4.15c1.236-.017 5.247-.358 5.237 2.12l.039-.01zm-.847-5.918c-.008 2.146-3.363 1.843-4.418 1.848l-.017-3.787c1.07.012 4.412-.293 4.396 1.948l.04-.01z"/></svg><svg viewBox="0 0 20 20" id="select-checked-icon" xmlns="http://www.w3.org/2000/svg"><path d="M2 9.333L8.462 18 18 2"/></svg><svg viewBox="0 0 32 32" id="select-eth-icon" xmlns="http://www.w3.org/2000/svg"><path fill-rule="evenodd" clip-rule="evenodd" d="M31.864 16.08c0 8.792-7.128 15.92-15.92 15.92C7.15 32 .024 24.872.024 16.08.023 7.285 7.15.158 15.943.158c8.792 0 15.92 7.127 15.92 15.92z"/><path fill-rule="evenodd" clip-rule="evenodd" d="M8.137 16.244L16 20.876l7.863-4.632L16 3.2 8.137 16.244zm0 1.524L16 28.8l7.863-11.032L16 22.339l-7.863-4.571z"/></svg><svg viewBox="0 0 32 32" id="select-ltc-icon" xmlns="http://www.w3.org/2000/svg"><path fill-rule="evenodd" clip-rule="evenodd" d="M0 16C0 7.163 7.163 0 16 0s16 7.163 16 16-7.163 16-16 16S0 24.837 0 16zm8.462 8.198h15.312l.958-3.768h-9.266l1.152-4.532 2.487-.924.696-2.74-2.487.924 1.83-7.196h-6.047l-2.457 9.674-2.129.79-.696 2.74 2.126-.79-1.48 5.822z"/></svg><svg viewBox="0 0 32 32" id="select-rpl-icon" xmlns="http://www.w3.org/2000/svg"><g opacity=".6" fill-rule="evenodd" clip-rule="evenodd"><path d="M16 32C7.163 32 0 24.837 0 16S7.163 0 16 0s16 7.163 16 16-7.163 16-16 16z"/><path d="M27.158 6.4h-3.24l-5.12 5.245a3.89 3.89 0 01-5.596 0L8.082 6.4h-3.24l6.74 6.905a6.143 6.143 0 008.835 0L27.159 6.4zM4.8 25.6h3.24l5.162-5.288a3.89 3.89 0 015.596 0L23.96 25.6h3.24l-6.782-6.947a6.144 6.144 0 00-8.836 0L4.8 25.6z"/></g></svg></svg>